<svg xmlns="http://www.w3.org/2000/svg" xmlns:xlink="http://www.w3.org/1999/xlink" width="240" zoomAndPan="magnify" viewBox="0 0 180 179.999997" height="240" preserveAspectRatio="xMidYMid meet" version="1.0"><defs><clipPath id="4558df9145"><path d="M 11.121094 2.476562 L 168.621094 2.476562 L 168.621094 177.226562 L 11.121094 177.226562 Z M 11.121094 2.476562 " clip-rule="nonzero"/></clipPath></defs><path fill="#3434c6" d="M 104.660156 49.15625 L 37.558594 49.15625 L 37.558594 37.484375 L 98.824219 37.484375 C 102.046875 37.484375 104.660156 40.097656 104.660156 43.320312 L 104.660156 49.15625 " fill-opacity="1" fill-rule="nonzero"/><path fill="#3434c6" d="M 59.660156 78.328125 L 40.070312 13.679688 C 38.578125 8.757812 34.042969 5.394531 28.902344 5.394531 L 14.21875 5.394531 L 42.136719 97.523438 C 42.882812 99.984375 45.152344 101.667969 47.722656 101.667969 L 136.75 101.667969 L 136.75 90 C 136.75 83.554688 131.523438 78.328125 125.078125 78.328125 L 59.660156 78.328125 " fill-opacity="1" fill-rule="nonzero"/><path fill="#f6e5b0" d="M 95.90625 148.347656 L 78.402344 148.347656 L 78.402344 101.667969 L 95.90625 101.667969 L 95.90625 148.347656 " fill-opacity="1" fill-rule="nonzero"/><path fill="#f6e5b0" d="M 119.246094 162.933594 L 119.246094 174.601562 L 55.0625 174.601562 L 55.0625 162.933594 L 78.402344 148.347656 L 95.90625 148.347656 L 119.246094 162.933594 " fill-opacity="1" fill-rule="nonzero"/><path fill="#f6e5b0" d="M 119.246094 174.601562 L 55.0625 174.601562 L 55.0625 162.933594 L 119.246094 162.933594 L 119.246094 174.601562 " fill-opacity="1" fill-rule="nonzero"/><g clip-path="url(#4558df9145)"><path fill="#2f3335" d="M 128.046875 98.75 L 47.722656 98.75 C 46.425781 98.75 45.304688 97.917969 44.929688 96.679688 L 18.152344 8.3125 L 28.902344 8.3125 C 32.785156 8.3125 36.152344 10.808594 37.277344 14.523438 L 56.867188 79.175781 C 57.242188 80.402344 58.375 81.246094 59.660156 81.246094 L 125.078125 81.246094 C 129.90625 81.246094 133.832031 85.171875 133.832031 90 L 133.832031 98.75 L 128.058594 98.75 C 128.054688 98.75 128.046875 98.75 128.046875 98.75 Z M 86.785156 114.835938 C 86.003906 113.429688 84.226562 112.921875 82.820312 113.703125 L 81.320312 114.539062 L 81.320312 104.585938 L 92.988281 104.585938 L 92.988281 145.429688 L 81.320312 145.429688 L 81.320312 121.214844 L 85.652344 118.804688 C 87.0625 118.023438 87.570312 116.246094 86.785156 114.835938 Z M 109.074219 160.015625 L 65.234375 160.015625 L 79.238281 151.261719 L 95.070312 151.261719 Z M 116.328125 171.683594 L 57.980469 171.683594 L 57.980469 165.851562 L 116.328125 165.851562 Z M 98.824219 40.402344 C 100.433594 40.402344 101.742188 41.710938 101.742188 43.320312 L 101.742188 46.238281 L 52.984375 46.238281 L 51.214844 40.402344 Z M 103.265625 75.410156 L 61.824219 75.410156 L 54.753906 52.070312 L 93.933594 52.070312 Z M 165.921875 142.511719 L 147.476562 142.511719 L 132.304688 104.585938 L 136.75 104.585938 C 138.359375 104.585938 139.667969 103.277344 139.667969 101.667969 L 139.667969 90 C 139.667969 81.957031 133.121094 75.410156 125.078125 75.410156 L 109.550781 75.410156 L 100.214844 52.070312 L 104.660156 52.070312 C 106.269531 52.070312 107.574219 50.765625 107.574219 49.15625 L 107.574219 43.320312 C 107.574219 38.492188 103.648438 34.566406 98.824219 34.566406 L 49.449219 34.566406 L 42.859375 12.832031 C 40.984375 6.640625 35.375 2.476562 28.902344 2.476562 L 14.21875 2.476562 C 13.296875 2.476562 12.425781 2.914062 11.875 3.65625 C 11.328125 4.398438 11.160156 5.355469 11.425781 6.238281 L 39.347656 98.371094 C 40.472656 102.085938 43.839844 104.585938 47.722656 104.585938 L 75.484375 104.585938 L 75.484375 117.78125 L 56.5625 128.292969 C 55.15625 129.074219 54.648438 130.851562 55.429688 132.257812 C 55.964844 133.21875 56.957031 133.757812 57.984375 133.757812 C 58.460938 133.757812 58.949219 133.640625 59.398438 133.390625 L 75.484375 124.453125 L 75.484375 146.730469 L 53.515625 160.457031 C 52.664062 160.992188 52.144531 161.925781 52.144531 162.933594 L 52.144531 174.601562 C 52.144531 176.214844 53.453125 177.519531 55.0625 177.519531 L 119.246094 177.519531 C 120.855469 177.519531 122.164062 176.214844 122.164062 174.601562 L 122.164062 162.933594 C 122.164062 161.925781 121.644531 160.992188 120.789062 160.457031 L 98.824219 146.730469 L 98.824219 104.585938 L 126.023438 104.585938 L 142.792969 146.511719 C 143.234375 147.621094 144.308594 148.347656 145.5 148.347656 L 165.921875 148.347656 C 167.535156 148.347656 168.839844 147.039062 168.839844 145.429688 C 168.839844 143.816406 167.535156 142.511719 165.921875 142.511719 " fill-opacity="1" fill-rule="nonzero"/></g></svg>